<svg width="500" height="500" viewBox="0 0 500 500" fill="none" xmlns="http://www.w3.org/2000/svg">
<ellipse cx="79.8315" cy="79.8314" rx="79.8315" ry="79.8314" transform="matrix(-1 0 0 1 328.383 167.658)" fill="#555B6D"/>
<path d="M374.219 57.8845C336.733 32.8635 309.685 23.1686 244.493 17.9688C197.601 72.323 189.919 108.479 204.577 181.623L254.472 169.649C267.538 109.909 298.659 87.7794 374.219 57.8845Z" fill="#555B6D"/>
<path d="M472.185 199.412C462.735 155.345 450.091 129.544 406.956 80.386C335.447 86.695 304.744 107.274 264.287 169.95L308.418 196.13C359.418 162.388 397.16 168.202 472.185 199.412Z" fill="#555B6D"/>
<path d="M440.096 372.481C464.577 334.64 473.883 307.456 478.147 242.195C423.126 196.088 386.864 188.926 313.937 204.631L326.626 254.349C386.546 266.557 409.121 297.358 440.096 372.481Z" fill="#555B6D"/>
<path d="M199.135 27.6143C155.134 37.3722 129.422 50.1954 80.566 93.6719C87.3731 165.135 108.166 195.694 171.122 235.713L196.994 191.401C162.897 140.638 168.448 102.856 199.135 27.6143Z" fill="#555B6D"/>
<path d="M58.7329 125.295C34.1866 163.094 24.8336 190.262 20.4563 255.515C75.3976 301.717 111.647 308.943 184.601 293.363L171.998 243.624C112.099 231.312 89.5783 200.472 58.7329 125.295Z" fill="#555B6D"/>
<path d="M27.5733 297.035C37.3937 341.022 50.2535 366.716 93.7994 415.51C165.252 408.601 195.782 387.765 235.711 324.751L191.363 298.943C140.648 333.112 102.858 327.615 27.5733 297.035Z" fill="#555B6D"/>
<path d="M130.069 444.948C168.925 467.785 196.482 475.917 261.865 477.38C305.572 420.433 311.174 383.898 292.357 311.711L243.229 326.519C233.6 386.908 203.795 410.781 130.069 444.948Z" fill="#555B6D"/>
<path d="M297.084 472.329C341.103 462.658 366.841 449.885 415.782 406.505C409.115 335.029 388.382 304.428 325.505 264.286L299.546 308.547C333.543 359.377 327.918 397.148 297.084 472.329Z" fill="#555B6D"/>
</svg>
