<svg width="160" height="233" viewBox="0 0 160 233" fill="none" xmlns="http://www.w3.org/2000/svg">
<path d="M0 174.016C0 171.254 2.23858 169.016 5 169.016H155C157.761 169.016 160 171.254 160 174.016V220.016C160 226.643 154.627 232.016 148 232.016H12C5.37258 232.016 0 226.643 0 220.016V174.016Z" fill="black"/>
<path fill-rule="evenodd" clip-rule="evenodd" d="M62 35.0156C27.7583 35.0156 0 62.7734 0 97.0156V146.016C0 149.883 3.13379 153.016 7 153.016H153C156.866 153.016 160 149.883 160 146.016V97.0156C160 62.7734 132.242 35.0156 98 35.0156H62ZM80 105.016C93.8071 105.016 105 93.8242 105 80.0156C105 66.207 93.8071 55.0156 80 55.0156C66.1929 55.0156 55 66.207 55 80.0156C55 93.8242 66.1929 105.016 80 105.016Z" fill="black"/>
<path d="M41.9993 20.9475C54 -6.48438 104.299 -7.48133 118.004 20.9624C131.709 49.4062 118.004 20.9522 118.004 20.9522C88.8779 18.4274 72.5767 16.7337 42.0046 20.9522C42.0046 20.9522 29.9986 48.3794 41.9993 20.9475Z" fill="black"/>
</svg>
