<svg width="100" height="100" viewBox="0 0 100 100" fill="none" xmlns="http://www.w3.org/2000/svg">
<ellipse cx="15.9663" cy="15.9663" rx="15.9663" ry="15.9663" transform="matrix(-1 0 0 1 65.6797 33.5312)" fill="#80EEFB"/>
<path d="M74.8438 11.5769C67.3465 6.57269 61.937 4.63372 48.8985 3.59375C39.5201 14.4646 37.9838 21.6957 40.9154 36.3246L50.8943 33.9297C53.5076 21.9819 59.7318 17.5559 74.8438 11.5769Z" fill="#80EEFB"/>
<path d="M94.4371 39.882C92.5469 31.0685 90.0182 25.9083 81.3912 16.0768C67.0895 17.3386 60.9487 21.4544 52.8575 33.9897L61.6836 39.2255C71.8835 32.4771 79.4319 33.6399 94.4371 39.882Z" fill="#80EEFB"/>
<path d="M88.0177 74.4954C92.9138 66.9271 94.775 61.4904 95.6279 48.4383C84.6236 39.2168 77.3712 37.7843 62.7858 40.9255L65.3237 50.869C77.3077 53.3106 81.8225 59.4707 88.0177 74.4954Z" fill="#80EEFB"/>
<path d="M39.8269 5.52286C31.0268 7.47444 25.8844 10.0391 16.1132 18.7344C17.4746 33.0269 21.6332 39.1389 34.2245 47.1425L39.3987 38.2802C32.5794 28.1275 33.6895 20.5712 39.8269 5.52286Z" fill="#80EEFB"/>
<path d="M11.7481 25.0595C6.83888 32.6192 4.96828 38.0527 4.09282 51.1033C15.0811 60.3439 22.331 61.7889 36.9218 58.6731L34.4012 48.7251C22.4214 46.2628 17.9172 40.0948 11.7481 25.0595Z" fill="#80EEFB"/>
<path d="M5.51466 59.4074C7.47875 68.2047 10.0507 73.3435 18.7599 83.1023C33.0505 81.7206 39.1565 77.5533 47.1423 64.9507L38.2725 59.789C28.1296 66.6228 20.5717 65.5234 5.51466 59.4074Z" fill="#80EEFB"/>
<path d="M26.0122 88.9889C33.7834 93.5562 39.2949 95.1826 52.3715 95.4753C61.1129 84.0859 62.2332 76.7788 58.4699 62.3414L48.6442 65.3031C46.7185 77.3808 40.7575 82.1555 26.0122 88.9889Z" fill="#80EEFB"/>
<path d="M59.4183 94.4658C68.2222 92.5315 73.3697 89.977 83.1579 81.3009C81.8246 67.0057 77.678 60.8856 65.1025 52.8572L59.9108 61.7094C66.7102 71.8755 65.5852 79.4296 59.4183 94.4658Z" fill="#80EEFB"/>
</svg>
