<svg width="101" height="100" viewBox="0 0 101 100" fill="none" xmlns="http://www.w3.org/2000/svg">
<path fill-rule="evenodd" clip-rule="evenodd" d="M100.186 45.743C104.525 84.3308 40.3621 110.83 11.9776 95.6593C-10.657 80.4887 7.20826 56.6316 11.9804 52.7166C-13.223 49.1781 1.09557 -3.91978 57.2469 0.231088C85.9977 4.14609 100.186 26.9589 100.186 45.743ZM87.4579 42.9357C87.4579 49.0845 83.295 54.069 78.1597 54.069C73.0245 54.069 68.8616 49.0845 68.8616 42.9357C68.8616 36.787 73.0245 31.8025 78.1597 31.8025C83.295 31.8025 87.4579 36.787 87.4579 42.9357ZM50.2803 54.069C55.4155 54.069 59.5784 49.0845 59.5784 42.9357C59.5784 36.787 55.4155 31.8025 50.2803 31.8025C45.1451 31.8025 40.9821 36.787 40.9821 42.9357C40.9821 49.0845 45.1451 54.069 50.2803 54.069Z" fill="#80EEFB"/>
</svg>
