<svg width="100" height="100" viewBox="0 0 100 100" fill="none" xmlns="http://www.w3.org/2000/svg">
<path d="M16.8444 13C15.2743 13 14 14.2743 14 15.8444V75.5778C14 81.8611 19.0944 86.9555 25.3778 86.9555H68.0444H70.8889H73.7333C80.0167 86.9555 85.1111 81.8611 85.1111 75.5778V35.7555C85.1111 34.1854 83.8368 32.9111 82.2666 32.9111H76.5778V75.5778C76.5778 77.1507 75.3034 78.4222 73.7333 78.4222C72.1632 78.4222 70.8889 77.1507 70.8889 75.5778V15.8444C70.8889 14.2743 69.6146 13 68.0444 13H16.8444ZM22.5333 24.3778H62.3555V32.9111H22.5333V24.3778ZM22.5333 44.2889H39.6V49.9778H22.5333V44.2889ZM45.2889 44.2889H62.3555V49.9778H45.2889V44.2889ZM22.5333 55.6666H39.6V61.3555H22.5333V55.6666ZM45.2889 55.6666H62.3555V61.3555H45.2889V55.6666ZM22.5333 67.0444H39.6V72.7333H22.5333V67.0444ZM45.2889 67.0444H62.3555V72.7333H45.2889V67.0444Z" fill="#90A4AE"/>
</svg>
