<svg width="100" height="100" viewBox="0 0 100 100" fill="none" xmlns="http://www.w3.org/2000/svg">
<path fill-rule="evenodd" clip-rule="evenodd" d="M99.7913 45.743C104.113 84.3308 40.203 110.83 11.9304 95.6593C-10.615 80.4886 7.17985 56.6316 11.9332 52.7166C-13.1709 49.1781 1.09125 -3.91978 57.0213 0.231088C85.6587 4.14609 99.7913 26.9589 99.7913 45.743ZM87.1323 42.9341C87.1323 49.0828 82.9858 54.0674 77.8709 54.0674C72.7559 54.0674 68.6094 49.0828 68.6094 42.9341C68.6094 36.7853 72.7559 31.8008 77.8709 31.8008C82.9858 31.8008 87.1323 36.7853 87.1323 42.9341ZM50.0584 54.0674C55.1733 54.0674 59.3198 49.0828 59.3198 42.9341C59.3198 36.7853 55.1733 31.8008 50.0584 31.8008C44.9434 31.8008 40.7969 36.7853 40.7969 42.9341C40.7969 49.0828 44.9434 54.0674 50.0584 54.0674Z" fill="#80EEFB"/>
</svg>
