<svg width="100" height="100" viewBox="0 0 100 100" fill="none" xmlns="http://www.w3.org/2000/svg">
<path d="M86.4003 14.6792C83.646 12.753 80.1782 12.4647 77.1356 13.9139L12.4823 47.9707C7.63187 50.5253 7.91654 57.5127 12.9112 59.7642C13.9796 60.2448 14.9113 60.6071 15.6396 60.8067L23.566 62.7883C26.298 63.476 29.2261 62.9695 31.5774 61.4019L65.1757 35.6005C65.941 35.0164 67.0206 35.1088 67.6638 35.8187C68.3145 36.5211 68.3145 37.6043 67.6675 38.3141L43.4743 64.818C42.3948 65.9049 41.8957 67.3171 42.0547 68.7553C42.2136 70.1934 43.0048 71.4615 44.2248 72.2379L44.3542 72.3044L73.7269 86.2902C78.2262 88.4344 83.4944 85.4916 84.0342 80.5376L90.2858 23.1195C90.6111 19.7663 89.1619 16.6127 86.4003 14.6792Z" fill="#A3ADD0"/>
</svg>
